<svg width="39" height="16" viewBox="0 0 39 16" fill="none" xmlns="http://www.w3.org/2000/svg">
<path d="M8.89258 8.97461H3.50195V12.3633H9.86914V15H0.0742188V0.78125H9.88867V3.42773H3.50195V6.42578H8.89258V8.97461ZM23.9406 15H20.5324L15.4934 6.15234V15H12.0656V0.78125H15.4934L20.5227 9.62891V0.78125H23.9406V15ZM38.9492 13.2422C38.4219 13.8281 37.6504 14.3001 36.6348 14.6582C35.6191 15.0163 34.5059 15.1953 33.2949 15.1953C31.4329 15.1953 29.9453 14.6257 28.832 13.4863C27.7188 12.347 27.123 10.7617 27.0449 8.73047L27.0352 7.5C27.0352 6.10026 27.2826 4.87956 27.7773 3.83789C28.2721 2.78971 28.9785 1.98568 29.8965 1.42578C30.821 0.859375 31.8887 0.576172 33.0996 0.576172C34.8704 0.576172 36.2441 0.983073 37.2207 1.79688C38.2038 2.60417 38.7767 3.81185 38.9395 5.41992H35.6387C35.5215 4.62565 35.2676 4.05924 34.877 3.7207C34.4863 3.38216 33.9329 3.21289 33.2168 3.21289C32.3574 3.21289 31.6934 3.57747 31.2246 4.30664C30.7559 5.03581 30.5182 6.07747 30.5117 7.43164V8.29102C30.5117 9.71029 30.7526 10.778 31.2344 11.4941C31.7227 12.2038 32.4876 12.5586 33.5293 12.5586C34.4212 12.5586 35.0853 12.36 35.5215 11.9629V9.75586H33.1387V7.40234H38.9492V13.2422Z" fill="white"/>
<path d="M8.89258 8.97461V9.97461H9.89258V8.97461H8.89258ZM3.50195 8.97461V7.97461H2.50195V8.97461H3.50195ZM3.50195 12.3633H2.50195V13.3633H3.50195V12.3633ZM9.86914 12.3633H10.8691V11.3633H9.86914V12.3633ZM9.86914 15V16H10.8691V15H9.86914ZM0.0742188 15H-0.925781V16H0.0742188V15ZM0.0742188 0.78125V-0.21875H-0.925781V0.78125H0.0742188ZM9.88867 0.78125H10.8887V-0.21875H9.88867V0.78125ZM9.88867 3.42773V4.42773H10.8887V3.42773H9.88867ZM3.50195 3.42773V2.42773H2.50195V3.42773H3.50195ZM3.50195 6.42578H2.50195V7.42578H3.50195V6.42578ZM8.89258 6.42578H9.89258V5.42578H8.89258V6.42578ZM8.89258 7.97461H3.50195V9.97461H8.89258V7.97461ZM2.50195 8.97461V12.3633H4.50195V8.97461H2.50195ZM3.50195 13.3633H9.86914V11.3633H3.50195V13.3633ZM8.86914 12.3633V15H10.8691V12.3633H8.86914ZM9.86914 14H0.0742188V16H9.86914V14ZM1.07422 15V0.78125H-0.925781V15H1.07422ZM0.0742188 1.78125H9.88867V-0.21875H0.0742188V1.78125ZM8.88867 0.78125V3.42773H10.8887V0.78125H8.88867ZM9.88867 2.42773H3.50195V4.42773H9.88867V2.42773ZM2.50195 3.42773V6.42578H4.50195V3.42773H2.50195ZM3.50195 7.42578H8.89258V5.42578H3.50195V7.42578ZM7.89258 6.42578V8.97461H9.89258V6.42578H7.89258ZM23.9406 15V16H24.9406V15H23.9406ZM20.5324 15L19.6635 15.4949L19.9511 16H20.5324V15ZM15.4934 6.15234L16.3623 5.65744L14.4934 2.37592V6.15234H15.4934ZM15.4934 15V16H16.4934V15H15.4934ZM12.0656 15H11.0656V16H12.0656V15ZM12.0656 0.78125V-0.21875H11.0656V0.78125H12.0656ZM15.4934 0.78125L16.3627 0.287076L16.0752 -0.21875H15.4934V0.78125ZM20.5227 9.62891L19.6533 10.1231L21.5227 13.4117V9.62891H20.5227ZM20.5227 0.78125V-0.21875H19.5227V0.78125H20.5227ZM23.9406 0.78125H24.9406V-0.21875H23.9406V0.78125ZM23.9406 14H20.5324V16H23.9406V14ZM21.4014 14.5051L16.3623 5.65744L14.6244 6.64724L19.6635 15.4949L21.4014 14.5051ZM14.4934 6.15234V15H16.4934V6.15234H14.4934ZM15.4934 14H12.0656V16H15.4934V14ZM13.0656 15V0.78125H11.0656V15H13.0656ZM12.0656 1.78125H15.4934V-0.21875H12.0656V1.78125ZM14.624 1.27542L19.6533 10.1231L21.392 9.13473L16.3627 0.287076L14.624 1.27542ZM21.5227 9.62891V0.78125H19.5227V9.62891H21.5227ZM20.5227 1.78125H23.9406V-0.21875H20.5227V1.78125ZM22.9406 0.78125V15H24.9406V0.78125H22.9406ZM38.9492 13.2422L39.6925 13.9112L39.9492 13.6259V13.2422H38.9492ZM27.0449 8.73047L26.045 8.73841L26.0451 8.75366L26.0457 8.7689L27.0449 8.73047ZM27.0352 7.5H26.0351L26.0352 7.50794L27.0352 7.5ZM27.7773 3.83789L28.6806 4.26695L28.6817 4.26477L27.7773 3.83789ZM29.8965 1.42578L30.4172 2.27951L30.4189 2.27847L29.8965 1.42578ZM37.2207 1.79688L36.5805 2.56512L36.5861 2.56969L37.2207 1.79688ZM38.9395 5.41992V6.41992H40.0458L39.9344 5.31922L38.9395 5.41992ZM35.6387 5.41992L34.6494 5.56588L34.7754 6.41992H35.6387V5.41992ZM31.2246 4.30664L32.0658 4.8474L31.2246 4.30664ZM30.5117 7.43164L29.5117 7.42683V7.43164H30.5117ZM31.2344 11.4941L30.4046 12.0523L30.4106 12.061L31.2344 11.4941ZM35.5215 11.9629L36.1947 12.7023L36.5215 12.4048V11.9629H35.5215ZM35.5215 9.75586H36.5215V8.75586H35.5215V9.75586ZM33.1387 9.75586H32.1387V10.7559H33.1387V9.75586ZM33.1387 7.40234V6.40234H32.1387V7.40234H33.1387ZM38.9492 7.40234H39.9492V6.40234H38.9492V7.40234ZM38.2059 12.5732C37.8239 12.9977 37.2153 13.3932 36.3023 13.7151L36.9673 15.6013C38.0855 15.2071 39.0199 14.6586 39.6925 13.9112L38.2059 12.5732ZM36.3023 13.7151C35.4059 14.0311 34.4066 14.1953 33.2949 14.1953V16.1953C34.6052 16.1953 35.8324 16.0014 36.9673 15.6013L36.3023 13.7151ZM33.2949 14.1953C31.6529 14.1953 30.4405 13.7016 29.5473 12.7874L28.1168 14.1852C29.4501 15.5497 31.213 16.1953 33.2949 16.1953V14.1953ZM29.5473 12.7874C28.651 11.8703 28.1155 10.5462 28.0442 8.69204L26.0457 8.7689C26.1306 10.9772 26.7865 12.8238 28.1168 14.1852L29.5473 12.7874ZM28.0449 8.72253L28.0351 7.49206L26.0352 7.50794L26.045 8.73841L28.0449 8.72253ZM28.0352 7.5C28.0352 6.2175 28.2617 5.14897 28.6806 4.26695L26.8741 3.40883C26.3034 4.61014 26.0352 5.98302 26.0352 7.5H28.0352ZM28.6817 4.26477C29.0998 3.37889 29.6792 2.72966 30.4172 2.27951L29.3758 0.572051C28.2779 1.24169 27.4444 2.20054 26.873 3.41101L28.6817 4.26477ZM30.4189 2.27847C31.1683 1.81935 32.0509 1.57617 33.0996 1.57617V-0.423828C31.7264 -0.423828 30.4737 -0.1006 29.3741 0.573094L30.4189 2.27847ZM33.0996 1.57617C34.7276 1.57617 35.843 1.95052 36.5805 2.5651L37.8609 1.02865C36.6453 0.015624 35.0133 -0.423828 33.0996 -0.423828V1.57617ZM36.5861 2.56969C37.3135 3.16707 37.8008 4.10074 37.9445 5.52062L39.9344 5.31922C39.7526 3.52296 39.094 2.04127 37.8553 1.02406L36.5861 2.56969ZM38.9395 4.41992H35.6387V6.41992H38.9395V4.41992ZM36.628 5.27396C36.4943 4.36785 36.1801 3.52678 35.5319 2.96501L34.222 4.47639C34.3551 4.59171 34.5487 4.88345 34.6494 5.56588L36.628 5.27396ZM35.5319 2.96501C34.9 2.41735 34.081 2.21289 33.2168 2.21289V4.21289C33.7849 4.21289 34.0727 4.34697 34.222 4.47639L35.5319 2.96501ZM33.2168 2.21289C32.0136 2.21289 31.0342 2.75352 30.3834 3.76588L32.0658 4.8474C32.3525 4.40143 32.7013 4.21289 33.2168 4.21289V2.21289ZM30.3834 3.76588C29.7693 4.72127 29.5187 5.98077 29.5117 7.42683L31.5117 7.43645C31.5178 6.17418 31.7425 5.35034 32.0658 4.8474L30.3834 3.76588ZM29.5117 7.43164V8.29102H31.5117V7.43164H29.5117ZM29.5117 8.29102C29.5117 9.79323 29.7612 11.0959 30.4047 12.0523L32.0641 10.936C31.744 10.4601 31.5117 9.62735 31.5117 8.29102H29.5117ZM30.4106 12.061C31.1259 13.1006 32.237 13.5586 33.5293 13.5586V11.5586C32.7383 11.5586 32.3194 11.3069 32.0582 10.9273L30.4106 12.061ZM33.5293 13.5586C34.5464 13.5586 35.4997 13.3351 36.1947 12.7023L34.8483 11.2234C34.6709 11.3849 34.2961 11.5586 33.5293 11.5586V13.5586ZM36.5215 11.9629V9.75586H34.5215V11.9629H36.5215ZM35.5215 8.75586H33.1387V10.7559H35.5215V8.75586ZM34.1387 9.75586V7.40234H32.1387V9.75586H34.1387ZM33.1387 8.40234H38.9492V6.40234H33.1387V8.40234ZM37.9492 7.40234V13.2422H39.9492V7.40234H37.9492Z" fill="black"/>
</svg>
