<svg width="16" height="15" viewBox="0 0 16 15" fill="none" xmlns="http://www.w3.org/2000/svg">
<path fill-rule="evenodd" clip-rule="evenodd" d="M3.2 0.0390625H12.8C14.5673 0.0390625 16 1.35136 16 2.97017V8.83237C16 10.4512 14.5673 11.7635 12.8 11.7635H4.8C4.15884 11.7523 3.53946 11.9766 3.08 12.3863L0.68 14.5847C0.606662 14.6544 0.505695 14.694 0.4 14.6946C0.179086 14.6946 0 14.5305 0 14.3282V2.97017C0 1.35136 1.43269 0.0390625 3.2 0.0390625ZM14.4 2.96925C14.4 2.15986 13.6837 1.50372 12.8 1.50372H3.2C2.31635 1.50372 1.60001 2.15986 1.60001 2.96925V11.6745L1.96801 11.3667C2.71961 10.68 3.73841 10.2952 4.8 10.2969H12.8C13.6837 10.2969 14.4 9.64076 14.4 8.83137V2.96925Z" fill="#7B7B7B"/>
</svg>
