<svg version="1.1" viewBox="0.0 0.0 512.0 512.0" fill="none" stroke="none" stroke-linecap="square" stroke-miterlimit="10" xmlns:xlink="http://www.w3.org/1999/xlink" xmlns="http://www.w3.org/2000/svg"><clipPath id="p.0"><path d="m0 0l512.0 0l0 512.0l-512.0 0l0 -512.0z" clip-rule="nonzero"/></clipPath><g clip-path="url(#p.0)"><path fill="#000000" fill-opacity="0.0" d="m0 0l512.0 0l0 512.0l-512.0 0z" fill-rule="evenodd"/><path fill="#ffddbb" d="m90.855644 245.31233l0 0c0 -80.58139 69.39234 -145.90552 154.99213 -145.90552c85.59981 0 154.99214 65.32412 154.99214 145.90552c0 80.581406 -69.392334 145.9055 -154.99214 145.9055c-85.59978 0 -154.99213 -65.3241 -154.99213 -145.9055z" fill-rule="evenodd"/><path fill="#cbb095" d="m180.04787 201.67578c0 -8.39389 7.2283783 -15.198486 16.14502 -15.198486c8.916641 0 16.145004 6.804596 16.145004 15.198486c0 8.39389 -7.228363 15.198486 -16.145004 15.198486c-8.916641 0 -16.14502 -6.804596 -16.14502 -15.198486m99.30977 0c0 -8.39389 7.228363 -15.198486 16.14502 -15.198486c8.9166565 0 16.14502 6.804596 16.14502 15.198486c0 8.39389 -7.228363 15.198486 -16.14502 15.198486c-8.9166565 0 -16.14502 -6.804596 -16.14502 -15.198486" fill-rule="evenodd"/><path fill="#000000" fill-opacity="0.0" d="m161.84102 308.9427q84.006744 54.31189 167.8173 0" fill-rule="evenodd"/><path fill="#000000" fill-opacity="0.0" d="m90.855644 245.31233l0 0c0 -80.58139 69.39234 -145.90552 154.99213 -145.90552c85.59981 0 154.99214 65.32412 154.99214 145.90552c0 80.581406 -69.392334 145.9055 -154.99214 145.9055c-85.59978 0 -154.99213 -65.3241 -154.99213 -145.9055z" fill-rule="evenodd"/><path stroke="#000000" stroke-width="1.0" stroke-linejoin="round" stroke-linecap="butt" d="m180.04787 201.67578c0 -8.39389 7.2283783 -15.198486 16.14502 -15.198486c8.916641 0 16.145004 6.804596 16.145004 15.198486c0 8.39389 -7.228363 15.198486 -16.145004 15.198486c-8.916641 0 -16.14502 -6.804596 -16.14502 -15.198486m99.30977 0c0 -8.39389 7.228363 -15.198486 16.14502 -15.198486c8.9166565 0 16.14502 6.804596 16.14502 15.198486c0 8.39389 -7.228363 15.198486 -16.14502 15.198486c-8.9166565 0 -16.14502 -6.804596 -16.14502 -15.198486" fill-rule="evenodd"/><path stroke="#000000" stroke-width="1.0" stroke-linejoin="round" stroke-linecap="butt" d="m161.84102 308.9427q84.006744 54.31189 167.8173 0" fill-rule="evenodd"/><path stroke="#000000" stroke-width="1.0" stroke-linejoin="round" stroke-linecap="butt" d="m90.855644 245.31233l0 0c0 -80.58139 69.39234 -145.90552 154.99213 -145.90552c85.59981 0 154.99214 65.32412 154.99214 145.90552c0 80.581406 -69.392334 145.9055 -154.99214 145.9055c-85.59978 0 -154.99213 -65.3241 -154.99213 -145.9055z" fill-rule="evenodd"/><path fill="#fd731a" d="m191.3307 110.097115l205.22835 102.61155l-16.034119 -53.443573l-45.960632 -49.167976l-61.997375 -19.24147l-57.719162 4.275589z" fill-rule="evenodd"/><path stroke="#000000" stroke-width="1.0" stroke-linejoin="round" stroke-linecap="butt" d="m191.3307 110.097115l205.22835 102.61155l-16.034119 -53.443573l-45.960632 -49.167976l-61.997375 -19.24147l-57.719162 4.275589z" fill-rule="evenodd"/><path fill="#fd731a" d="m191.3307 109.026245l-45.960632 -6.412071l-36.343826 24.585304l-29.92913 43.824142l-18.170605 73.75328l1.0682411 100.47508l1.0708656 79.09973l1.0682411 95.131195l74.821526 -1.0708618l-5.3438416 -159.26508l-11.758522 -71.61417l-7.480316 -66.272964l20.30709 -41.685043z" fill-rule="evenodd"/><path stroke="#000000" stroke-width="1.0" stroke-linejoin="round" stroke-linecap="butt" d="m191.3307 109.026245l-45.960632 -6.412071l-36.343826 24.585304l-29.92913 43.824142l-18.170605 73.75328l1.0682411 100.47508l1.0708656 79.09973l1.0682411 95.131195l74.821526 -1.0708618l-5.3438416 -159.26508l-11.758522 -71.61417l-7.480316 -66.272964l20.30709 -41.685043z" fill-rule="evenodd"/><path fill="#fd731a" d="m357.0105 195.6063l3.2073364 150.71393l-2.1390991 168.88712l63.065613 1.0682373l-4.2755737 -281.1181l-5.3438416 -47.031494l-17.102356 -29.929138l-36.34384 -39.54856l-22.446198 -7.4829407l45.963257 47.0315l16.031494 56.65091z" fill-rule="evenodd"/><path stroke="#000000" stroke-width="1.0" stroke-linejoin="round" stroke-linecap="butt" d="m357.0105 195.6063l3.2073364 150.71393l-2.1390991 168.88712l63.065613 1.0682373l-4.2755737 -281.1181l-5.3438416 -47.031494l-17.102356 -29.929138l-36.34384 -39.54856l-22.446198 -7.4829407l45.963257 47.0315l16.031494 56.65091z" fill-rule="evenodd"/><path fill="#fd731a" d="m107.95801 128.26772l38.480316 -35.272964l35.272964 -11.75853l55.582672 0l72.68504 11.75853l48.09973 23.514435l-38.480316 -10.68766l-44.892395 -14.965881l-58.79001 5.343834l-24.585312 13.897636l-47.02887 -6.4147034z" fill-rule="evenodd"/><path stroke="#000000" stroke-width="1.0" stroke-linejoin="round" stroke-linecap="butt" d="m107.95801 128.26772l38.480316 -35.272964l35.272964 -11.75853l55.582672 0l72.68504 11.75853l48.09973 23.514435l-38.480316 -10.68766l-44.892395 -14.965881l-58.79001 5.343834l-24.585312 13.897636l-47.02887 -6.4147034z" fill-rule="evenodd"/><path fill="#fd731a" d="m135.75066 177.07874l2.1364899 275.77692l-1.0682526 66.270325l-72.685036 1.0682373l-2.1391068 -272.5669z" fill-rule="evenodd"/><path stroke="#000000" stroke-width="1.0" stroke-linejoin="round" stroke-linecap="butt" d="m135.75066 177.07874l2.1364899 275.77692l-1.0682526 66.270325l-72.685036 1.0682373l-2.1391068 -272.5669z" fill-rule="evenodd"/></g></svg>